# xmcd
#
# Track frame offsets:
#	150
#	15526
#	29361
#	67422
#	107912
#
# Disc length: 2084 seconds
#
# Revision: 2
# Processed by: cddbd v1.5.2PL0 Copyright (c) Steve Scherf et al.
# Submitted via: EasyCDDAExtractor 15.3.0.1
#
DISCID=41082205
DTITLE=Mariah Carey - It's Like That
DYEAR=2005
DGENRE=Pop
TTITLE0=It's Like That (Main Mix)
TTITLE1=It's Like That (No Rap Mix)
TTITLE2=It's Like That (David Morales Club Mix)
TTITLE3=It's Like That (David Morales Classic Mix)
TTITLE4=It's Like That (Stereo Experience Mix)
EXTD=
EXTT0=
EXTT1=
EXTT2=
EXTT3=
EXTT4=
PLAYORDER=
